<svg width="24" height="24" viewBox="0 0 24 24" fill="none" xmlns="http://www.w3.org/2000/svg">
<path d="M12.9999 3C16.8799 3 19.9999 6.14 19.9999 10C19.9999 12.8 18.3699 15.19 15.9999 16.31V21H8.99992V18H7.99992C6.88992 18 5.99992 17.11 5.99992 16V13H4.49992C4.07992 13 3.83992 12.5 4.07992 12.19L5.99992 9.66C6.08802 7.86329 6.86415 6.16939 8.16739 4.92945C9.47064 3.6895 11.2011 2.99861 12.9999 3ZM10.3199 7.39H12.2499C12.2599 7.09 12.3499 6.86 12.5299 6.7C12.7151 6.54644 12.9494 6.46479 13.1899 6.47C13.4999 6.47 13.7599 6.57 13.9399 6.75C14.1199 6.94 14.1999 7.2 14.1999 7.5C14.1999 7.82 14.1299 8.09 13.9699 8.32C13.8299 8.55 13.6199 8.75 13.3599 8.91C12.8499 9.25 12.4999 9.55 12.3099 9.82C12.1099 10.08 11.9999 10.5 11.9999 11H13.9999C13.9999 10.69 14.0399 10.44 14.1299 10.26C14.2199 10.07 14.3899 9.9 14.6399 9.74C15.0899 9.5 15.4599 9.21 15.7499 8.81C16.0399 8.41 16.1899 8 16.1899 7.5C16.1899 6.74 15.9199 6.13 15.3799 5.68C14.8499 5.23 14.1199 5 13.1899 5C12.3199 5 11.6199 5.2 11.0799 5.59C10.5599 6 10.2999 6.57 10.3099 7.36L10.3199 7.39ZM11.9999 14H13.9999V12H11.9999V14ZM12.9999 1C8.40992 1 4.60992 4.42 4.05992 8.9L2.49992 11H2.46992L2.44992 11.03C1.89992 11.79 1.82992 12.79 2.25992 13.62C2.61992 14.31 3.25992 14.79 3.99992 14.94V16C3.99992 17.85 5.27992 19.42 6.99992 19.87V23H17.9999V17.5C20.4999 15.83 21.9999 13.06 21.9999 10C21.9999 5.03 17.9599 1 12.9999 1Z" fill="#898989"/>
</svg>
