<svg width="100%" height="100%" viewBox="0 0 55 68" fill="none" xmlns="http://www.w3.org/2000/svg">
<rect x="0.25" y="0.25" width="54.5" height="67.5" rx="3.75" fill="white" stroke="#9FA5AB" stroke-width="0.5"/>
<path d="M8.90881 5.22562H46.5304C47.4969 5.22562 48.2804 6.00912 48.2804 6.97562V46.9268C48.2804 47.8933 47.4969 48.6768 46.5304 48.6768H8.90882C7.94232 48.6768 7.15881 47.8933 7.15881 46.9268V6.97562C7.15881 6.00912 7.94232 5.22562 8.90881 5.22562Z" fill="white" stroke="#9FA5AB" stroke-width="0.5"/>
<path d="M20.4378 22.4327C21.3688 22.4327 22.0268 23.2937 22.0268 24.6377C22.0268 25.9887 21.3688 26.8497 20.4378 26.8497C19.5068 26.8497 18.8488 25.9887 18.8488 24.6377C18.8488 23.2937 19.5068 22.4327 20.4378 22.4327ZM20.4378 22.9577C19.8218 22.9577 19.4018 23.6157 19.4018 24.6377C19.4018 25.6667 19.8218 26.3387 20.4378 26.3387C21.0468 26.3387 21.4738 25.6667 21.4738 24.6377C21.4738 23.6157 21.0468 22.9577 20.4378 22.9577ZM23.0348 21.9497H23.6228V28.2777H23.0348V21.9497ZM23.4828 24.4767H24.6588V24.9667H23.4828V24.4767ZM29.7892 21.9427H30.3702V28.2847H29.7892V21.9427ZM27.0312 22.4327C27.9692 22.4327 28.6412 23.2937 28.6412 24.6377C28.6412 25.9887 27.9692 26.8497 27.0312 26.8497C26.1002 26.8497 25.4282 25.9887 25.4282 24.6377C25.4282 23.2937 26.1002 22.4327 27.0312 22.4327ZM27.0312 22.9577C26.4152 22.9577 25.9812 23.6157 25.9812 24.6377C25.9812 25.6667 26.4152 26.3387 27.0312 26.3387C27.6542 26.3387 28.0812 25.6667 28.0812 24.6377C28.0812 23.6157 27.6542 22.9577 27.0312 22.9577ZM34.3527 23.5387H35.4307V24.0147H34.3527V23.5387ZM31.9237 24.9037H32.3227C33.3097 24.9037 33.8977 24.8827 34.5977 24.7427L34.6537 25.2047C33.9257 25.3517 33.3307 25.3727 32.3227 25.3727H31.9237V24.9037ZM31.9237 22.3627H34.3107V22.8317H32.4837V25.1837H31.9237V22.3627ZM32.3087 23.6017H34.0587V24.0637H32.3087V23.6017ZM36.4107 21.9497H36.9637V25.7577H36.4107V21.9497ZM35.1927 22.0547H35.7387V25.6947H35.1927V22.0547ZM32.8127 26.0587H36.9637V28.1937H32.8127V26.0587ZM36.4037 26.5207H33.3797V27.7247H36.4037V26.5207ZM23.5245 30.4957H24.0005V31.6297C24.0005 33.0297 23.2445 34.3947 22.2435 34.9267L21.8865 34.4647C22.8035 34.0027 23.5245 32.7847 23.5245 31.6297V30.4957ZM23.6295 30.4957H24.0985V31.6297C24.0985 32.7427 24.8055 33.8977 25.7015 34.3457L25.3445 34.8077C24.3645 34.2827 23.6295 32.9877 23.6295 31.6297V30.4957ZM26.2545 29.9497H26.8425V36.2777H26.2545V29.9497ZM26.7025 32.5117H27.8785V33.0017H26.7025V32.5117ZM30.097 30.6427H30.58V31.2867C30.58 32.4487 29.866 33.4217 28.802 33.8067L28.501 33.3447C29.453 33.0087 30.097 32.1897 30.097 31.2867V30.6427ZM30.209 30.6427H30.692V31.2867C30.692 32.1407 31.35 32.9107 32.288 33.2257L31.987 33.6807C30.937 33.3237 30.209 32.3997 30.209 31.2867V30.6427ZM28.655 30.4747H32.12V30.9437H28.655V30.4747ZM33.016 29.9567H33.604V34.5837H33.016V29.9567ZM29.537 35.6617H33.793V36.1377H29.537V35.6617ZM29.537 34.1497H30.111V35.8717H29.537V34.1497Z" fill="#898989"/>
<path d="M7.36052 60.7317V60.3482L8.80086 58.7715C8.96989 58.5868 9.1091 58.4263 9.21847 58.2899C9.32785 58.1522 9.40881 58.0229 9.46137 57.9022C9.51535 57.78 9.54234 57.6522 9.54234 57.5186C9.54234 57.3652 9.5054 57.2324 9.43154 57.1202C9.3591 57.008 9.25967 56.9213 9.13325 56.8603C9.00682 56.7992 8.86478 56.7686 8.70711 56.7686C8.5395 56.7686 8.39319 56.8034 8.26819 56.873C8.14461 56.9412 8.04873 57.0371 7.98055 57.1607C7.91379 57.2843 7.8804 57.4291 7.8804 57.5953H7.37756C7.37756 57.3397 7.43651 57.1152 7.55441 56.922C7.67231 56.7289 7.83282 56.5783 8.03594 56.4703C8.24049 56.3624 8.46989 56.3084 8.72415 56.3084C8.97984 56.3084 9.2064 56.3624 9.40384 56.4703C9.60129 56.5783 9.75611 56.7239 9.86833 56.9071C9.98055 57.0904 10.0367 57.2942 10.0367 57.5186C10.0367 57.6791 10.0075 57.8361 9.9493 57.9895C9.89248 58.1415 9.79305 58.3113 9.651 58.4988C9.51038 58.6848 9.31506 58.9121 9.06506 59.1806L8.08495 60.2289V60.263H10.1134V60.7317H7.36052ZM11.7519 60.1351L11.7178 60.3652C11.6936 60.5272 11.6567 60.7005 11.607 60.8851C11.5587 61.0698 11.5082 61.2438 11.4557 61.4071C11.4031 61.5705 11.3598 61.7005 11.3257 61.797H10.9422C10.9607 61.7061 10.9848 61.5861 11.0146 61.437C11.0445 61.2878 11.0743 61.1209 11.1041 60.9363C11.1354 60.753 11.1609 60.5655 11.1808 60.3738L11.2064 60.1351H11.7519ZM13.9459 60.7914C13.6249 60.7914 13.3515 60.704 13.1256 60.5293C12.8998 60.3532 12.7272 60.0982 12.6079 59.7644C12.4885 59.4291 12.4289 59.0243 12.4289 58.5499C12.4289 58.0783 12.4885 57.6756 12.6079 57.3418C12.7286 57.0066 12.9019 56.7509 13.1277 56.5747C13.355 56.3972 13.6277 56.3084 13.9459 56.3084C14.2641 56.3084 14.5361 56.3972 14.762 56.5747C14.9892 56.7509 15.1625 57.0066 15.2819 57.3418C15.4026 57.6756 15.463 58.0783 15.463 58.5499C15.463 59.0243 15.4033 59.4291 15.284 59.7644C15.1647 60.0982 14.9921 60.3532 14.7662 60.5293C14.5404 60.704 14.2669 60.7914 13.9459 60.7914ZM13.9459 60.3226C14.2641 60.3226 14.5113 60.1692 14.6874 59.8624C14.8635 59.5556 14.9516 59.1181 14.9516 58.5499C14.9516 58.172 14.9111 57.8503 14.8302 57.5847C14.7506 57.3191 14.6356 57.1166 14.485 56.9774C14.3358 56.8382 14.1562 56.7686 13.9459 56.7686C13.6306 56.7686 13.3841 56.9242 13.2066 57.2353C13.029 57.5449 12.9402 57.9831 12.9402 58.5499C12.9402 58.9277 12.98 59.2488 13.0596 59.513C13.1391 59.7772 13.2535 59.9782 13.4026 60.1159C13.5532 60.2537 13.7343 60.3226 13.9459 60.3226ZM17.6959 60.7914C17.3749 60.7914 17.1015 60.704 16.8756 60.5293C16.6498 60.3532 16.4772 60.0982 16.3579 59.7644C16.2385 59.4291 16.1789 59.0243 16.1789 58.5499C16.1789 58.0783 16.2385 57.6756 16.3579 57.3418C16.4786 57.0066 16.6519 56.7509 16.8777 56.5747C17.105 56.3972 17.3777 56.3084 17.6959 56.3084C18.0141 56.3084 18.2861 56.3972 18.512 56.5747C18.7392 56.7509 18.9125 57.0066 19.0319 57.3418C19.1526 57.6756 19.213 58.0783 19.213 58.5499C19.213 59.0243 19.1533 59.4291 19.034 59.7644C18.9147 60.0982 18.7421 60.3532 18.5162 60.5293C18.2904 60.704 18.0169 60.7914 17.6959 60.7914ZM17.6959 60.3226C18.0141 60.3226 18.2613 60.1692 18.4374 59.8624C18.6135 59.5556 18.7016 59.1181 18.7016 58.5499C18.7016 58.172 18.6611 57.8503 18.5802 57.5847C18.5006 57.3191 18.3856 57.1166 18.235 56.9774C18.0858 56.8382 17.9062 56.7686 17.6959 56.7686C17.3806 56.7686 17.1341 56.9242 16.9566 57.2353C16.779 57.5449 16.6902 57.9831 16.6902 58.5499C16.6902 58.9277 16.73 59.2488 16.8096 59.513C16.8891 59.7772 17.0035 59.9782 17.1526 60.1159C17.3032 60.2537 17.4843 60.3226 17.6959 60.3226ZM21.4459 60.7914C21.1249 60.7914 20.8515 60.704 20.6256 60.5293C20.3998 60.3532 20.2272 60.0982 20.1079 59.7644C19.9885 59.4291 19.9289 59.0243 19.9289 58.5499C19.9289 58.0783 19.9885 57.6756 20.1079 57.3418C20.2286 57.0066 20.4019 56.7509 20.6277 56.5747C20.855 56.3972 21.1277 56.3084 21.4459 56.3084C21.7641 56.3084 22.0361 56.3972 22.262 56.5747C22.4892 56.7509 22.6625 57.0066 22.7819 57.3418C22.9026 57.6756 22.963 58.0783 22.963 58.5499C22.963 59.0243 22.9033 59.4291 22.784 59.7644C22.6647 60.0982 22.4921 60.3532 22.2662 60.5293C22.0404 60.704 21.7669 60.7914 21.4459 60.7914ZM21.4459 60.3226C21.7641 60.3226 22.0113 60.1692 22.1874 59.8624C22.3635 59.5556 22.4516 59.1181 22.4516 58.5499C22.4516 58.172 22.4111 57.8503 22.3302 57.5847C22.2506 57.3191 22.1356 57.1166 21.985 56.9774C21.8358 56.8382 21.6562 56.7686 21.4459 56.7686C21.1306 56.7686 20.8841 56.9242 20.7066 57.2353C20.529 57.5449 20.4402 57.9831 20.4402 58.5499C20.4402 58.9277 20.48 59.2488 20.5596 59.513C20.6391 59.7772 20.7535 59.9782 20.9026 60.1159C21.0532 60.2537 21.2343 60.3226 21.4459 60.3226ZM25.0596 61.2772V55.8226H25.409V61.2772H25.0596ZM26.2357 57.459C26.2101 57.2431 26.1064 57.0755 25.9246 56.9561C25.7428 56.8368 25.5198 56.7772 25.2556 56.7772C25.0624 56.7772 24.8934 56.8084 24.7485 56.8709C24.605 56.9334 24.4928 57.0193 24.4118 57.1287C24.3323 57.2381 24.2925 57.3624 24.2925 57.5016C24.2925 57.6181 24.3202 57.7182 24.3756 57.802C24.4324 57.8844 24.5049 57.9533 24.5929 58.0087C24.681 58.0627 24.7733 58.1074 24.8699 58.1429C24.9665 58.177 25.0553 58.2047 25.1363 58.226L25.5794 58.3453C25.6931 58.3752 25.8195 58.4164 25.9587 58.4689C26.0993 58.5215 26.2336 58.5932 26.3614 58.6841C26.4907 58.7736 26.5972 58.8887 26.681 59.0293C26.7648 59.1699 26.8067 59.3425 26.8067 59.547C26.8067 59.7828 26.7449 59.9959 26.6213 60.1863C26.4992 60.3766 26.3202 60.5279 26.0844 60.6401C25.85 60.7523 25.5652 60.8084 25.23 60.8084C24.9175 60.8084 24.6469 60.758 24.4182 60.6571C24.191 60.5563 24.012 60.4157 23.8813 60.2353C23.752 60.0549 23.6789 59.8453 23.6618 59.6067H24.2073C24.2215 59.7715 24.2769 59.9078 24.3735 60.0158C24.4715 60.1223 24.5951 60.2019 24.7442 60.2544C24.8948 60.3056 25.0567 60.3311 25.23 60.3311C25.4317 60.3311 25.6128 60.2985 25.7733 60.2331C25.9338 60.1664 26.061 60.074 26.1547 59.9561C26.2485 59.8368 26.2954 59.6976 26.2954 59.5385C26.2954 59.3936 26.2549 59.2757 26.1739 59.1848C26.0929 59.0939 25.9864 59.0201 25.8543 58.9632C25.7222 58.9064 25.5794 58.8567 25.426 58.8141L24.8891 58.6607C24.5482 58.5627 24.2783 58.4228 24.0794 58.2409C23.8806 58.0591 23.7812 57.8212 23.7812 57.5272C23.7812 57.2828 23.8472 57.0698 23.9793 56.888C24.1128 56.7047 24.2918 56.5627 24.5162 56.4618C24.7421 56.3595 24.9942 56.3084 25.2726 56.3084C25.5539 56.3084 25.8039 56.3588 26.0226 56.4597C26.2414 56.5591 26.4147 56.6955 26.5425 56.8688C26.6718 57.0421 26.74 57.2388 26.7471 57.459H26.2357Z" fill="#898989"/>
<path d="M46.6343 61.8634C46.7717 61.8634 46.9035 61.8005 47.0007 61.6885C47.0979 61.5765 47.1525 61.4247 47.1525 61.2663C47.1525 61.108 47.0979 60.9561 47.0007 60.8441C46.9035 60.7322 46.7717 60.6693 46.6343 60.6693C46.4969 60.6693 46.3651 60.7322 46.2679 60.8441C46.1707 60.9561 46.1161 61.108 46.1161 61.2663C46.1161 61.4247 46.1707 61.5765 46.2679 61.6885C46.3651 61.8005 46.4969 61.8634 46.6343 61.8634ZM43.1799 61.8634C43.3173 61.8634 43.4491 61.8005 43.5463 61.6885C43.6435 61.5765 43.6981 61.4247 43.6981 61.2663C43.6981 61.108 43.6435 60.9561 43.5463 60.8441C43.4491 60.7322 43.3173 60.6693 43.1799 60.6693C43.0425 60.6693 42.9107 60.7322 42.8135 60.8441C42.7163 60.9561 42.6617 61.108 42.6617 61.2663C42.6617 61.4247 42.7163 61.5765 42.8135 61.6885C42.9107 61.8005 43.0425 61.8634 43.1799 61.8634Z" fill="black" stroke="black" stroke-linecap="round" stroke-linejoin="round"/>
<path d="M45.598 54.6985H47.4979L46.807 59.0771M45.598 54.6985L45.2525 59.0771M45.598 54.6985H43.6117M46.807 59.0771H45.2525M46.807 59.0771H41.7049C41.0886 59.0771 40.7618 59.388 40.7618 59.8732C40.7618 60.3584 41.0886 60.6693 41.7049 60.6693H46.6343M45.2525 59.0771H43.8708M43.6117 54.6985H41.6254M43.6117 54.6985L43.8708 59.0771M43.8708 59.0771H42.3163L41.6254 54.6985M41.6254 54.6985C41.5677 54.433 41.28 53.9025 40.5891 53.9025" stroke="black" stroke-linecap="round" stroke-linejoin="round"/>
</svg>
